<svg id="Capa_1" enable-background="new 0 0 512 512" height="200" viewBox="0 0 512 512" width="200" xmlns="http://www.w3.org/2000/svg" style="width: 1em; height: 1em; vertical-align: middle; fill: currentcolor; overflow: hidden; font-size: 200px;"><path d="m303.631 429.5c-4.143-7.175-13.316-9.631-20.49-5.49l-12.141 7.009v-14.019c0-8.284-6.716-15-15-15s-15 6.716-15 15v14.019l-12.141-7.01c-7.174-4.143-16.348-1.685-20.49 5.49-4.143 7.174-1.685 16.348 5.49 20.49l12.141 7.011-12.141 7.01c-7.175 4.142-9.633 13.316-5.49 20.49 2.778 4.813 7.82 7.502 13.004 7.502 2.545 0 5.124-.648 7.486-2.012l12.141-7.01v14.02c0 8.284 6.716 15 15 15s15-6.716 15-15v-14.019l12.141 7.01c2.362 1.364 4.941 2.012 7.486 2.012 5.184 0 10.226-2.69 13.004-7.502 4.143-7.174 1.685-16.348-5.49-20.49l-12.141-7.011 12.141-7.01c7.174-4.142 9.632-13.316 5.49-20.49z"></path><path d="m433.631 309.5c-4.143-7.175-13.316-9.632-20.49-5.49l-12.141 7.009v-14.019c0-8.284-6.716-15-15-15s-15 6.716-15 15v14.019l-12.141-7.01c-7.174-4.144-16.349-1.685-20.49 5.49-4.143 7.174-1.685 16.348 5.49 20.49l12.141 7.011-12.141 7.01c-7.175 4.142-9.633 13.316-5.49 20.49 2.778 4.813 7.82 7.502 13.004 7.502 2.545 0 5.124-.648 7.486-2.012l12.141-7.01v14.02c0 8.284 6.716 15 15 15s15-6.716 15-15v-14.019l12.141 7.01c2.362 1.364 4.941 2.012 7.486 2.012 5.184 0 10.226-2.69 13.004-7.502 4.143-7.174 1.685-16.348-5.49-20.49l-12.141-7.011 12.141-7.01c7.174-4.142 9.632-13.316 5.49-20.49z"></path><path d="m173.631 309.5c-4.143-7.175-13.316-9.632-20.49-5.49l-12.141 7.009v-14.019c0-8.284-6.716-15-15-15s-15 6.716-15 15v14.019l-12.141-7.01c-7.175-4.144-16.348-1.685-20.49 5.49-4.143 7.174-1.685 16.348 5.49 20.49l12.141 7.011-12.141 7.01c-7.175 4.142-9.633 13.316-5.49 20.49 2.778 4.813 7.82 7.502 13.004 7.502 2.545 0 5.124-.648 7.486-2.012l12.141-7.01v14.02c0 8.284 6.716 15 15 15s15-6.716 15-15v-14.019l12.141 7.01c2.362 1.364 4.941 2.012 7.486 2.012 5.184 0 10.226-2.69 13.004-7.502 4.143-7.174 1.685-16.348-5.49-20.49l-12.141-7.011 12.141-7.01c7.174-4.142 9.632-13.316 5.49-20.49z"></path><circle cx="461" cy="282" r="15"></circle><circle cx="481" cy="362" r="15"></circle><circle cx="461" cy="432" r="15"></circle><circle cx="361" cy="432" r="15"></circle><circle cx="411" cy="482" r="15"></circle><circle cx="31" cy="302" r="15"></circle><circle cx="41" cy="392" r="15"></circle><circle cx="151" cy="432" r="15"></circle><circle cx="221" cy="372" r="15"></circle><circle cx="291" cy="342" r="15"></circle><circle cx="241" cy="302" r="15"></circle><circle cx="81" cy="472" r="15"></circle><path d="m417 250c52.383 0 95-42.617 95-95s-42.617-95-95-95c-3.799 0-7.615.239-11.43.713-5.914-15.229-15.74-28.858-28.508-39.3-16.884-13.808-38.215-21.413-60.062-21.413-44.295 0-81.597 30.474-92.061 71.556-11.573-7.311-25.267-11.556-39.939-11.556-21.77 0-42.187 9.458-56.265 25.429-7.347-3.551-15.429-5.429-23.735-5.429-25.622 0-47.208 17.613-53.29 41.366-29.49 6.15-51.71 32.345-51.71 63.634 0 35.841 29.159 65 65 65zm-100-220c30.404 0 57.114 21.554 63.509 51.25.873 4.052 3.383 7.563 6.936 9.698 3.554 2.136 7.832 2.705 11.818 1.576 5.909-1.675 11.877-2.524 17.737-2.524 35.841 0 65 29.159 65 65s-29.159 65-65 65h-117.249c.033-.052.052-.106.08-.159 6.427-10.078 10.169-22.027 10.169-34.841 0-31.116-21.976-57.195-51.223-63.531-1.253-6.85-3.452-13.37-6.435-19.438.004-.012.007-.025.011-.037 0-.431-.019-.864-.057-1.298-.204-2.359-.296-4.115-.296-5.696 0-35.841 29.159-65 65-65zm-287 155c0-19.299 15.701-35 35-35 8.284 0 15-6.716 15-15 0-13.785 11.215-25 25-25 6.347 0 12.434 2.458 17.14 6.921 3.369 3.195 8.025 4.651 12.617 3.939 4.589-.71 8.59-3.505 10.835-7.57 7.936-14.365 23.037-23.29 39.408-23.29 24.813 0 45 20.187 45 45 0 8.284 6.716 15 15 15 19.299 0 35 15.701 35 35s-15.701 35-35 35h-180c-19.299 0-35-15.701-35-35z"></path></svg>